# xmcd
#
# Track frame offsets:
# 300
# 15502
# 29667
# 43613
# 57284
# 71049
# 83609
# 94888
# 109238
# 122647
# 135412
# 145098
# 155870
# 169365
# 181025
# 192218
# 205102
# 216823
# 229530
#
# Disc length: 3223 seconds
#
#
# Revision: 0
# Processed by: cddbd v1.5.1PL2 Copyright (c) Steve Scherf et al.
# Submitted via: FreeRIP 2.945 
#
DISCID=0a0c9313
DTITLE=Dick Hames and Helen Forrest - Together Again
DYEAR=2005
DGENRE=Classical
TTITLE0=Long Ago And Far Away (Kern - Gershwin)
TTITLE1=Look For The Silver Lining (Kern - DeSylva)
TTITLE2=Together (Henderson - Brown - DeSylva)
TTITLE3=Oh! What It Seemed To lie (Benjamin - Weiss - Carle)
TTITLE4=In Love In Vain (Kern - Robin)
TTITLE5=You Stole My Heart (Sosnik - Adams)
TTITLE6=Something Old, Something New (Idriss - Tibbles)
TTITLE7=It Had To Be You (Jones - Kahn)
TTITLE8=I'm Always Chasing Rainbows (Carroll - McCarthy)
TTITLE9=Come Rain Or Come Shine (Arlen - Mercer)
TTITLE10=Why Does It Get So Late So Early (Wrubel)
TTITLE11=Tomorrow Is Forever (Steiner - Tobias)
TTITLE12=I'll Buy That Dream (Wrubel - Magidson)
TTITLE13=Gimmie A Little Kiss Will Ya, Huh (Turk - Smith - Pinkard)
TTITLE14=Till We Meet Again Whiting - Egan)
TTITLE15=Something To Remember You By (Swartz - Dietz)
TTITLE16=Some Sunday Morning (Jerome - Heindorf - Koehler)
TTITLE17=All Through The Day (Kern - Hammerstein)
TTITLE18=The Devil Sat Down And Cried - with Harry James (Bishop)
EXTD=Disc 1 of 3
EXTT0=
EXTT1=
EXTT2=
EXTT3=
EXTT4=
EXTT5=
EXTT6=
EXTT7=
EXTT8=
EXTT9=
EXTT10=
EXTT11=
EXTT12=
EXTT13=
EXTT14=
EXTT15=
EXTT16=
EXTT17=
EXTT18=
PLAYORDER=
